<?xml version="1.0" encoding="utf-8"?>
<!-- Generator: Adobe Illustrator 26.5.0, SVG Export Plug-In . SVG Version: 6.00 Build 0)  -->
<svg version="1.1" id="Layer_1" xmlns="http://www.w3.org/2000/svg" xmlns:xlink="http://www.w3.org/1999/xlink" x="0px" y="0px"
	 viewBox="0 0 16 16" style="enable-background:new 0 0 16 16;" xml:space="preserve">
<style type="text/css">
	.st0{fill:#FFF275;}
	.st1{fill:none;stroke:#FAF5B6;stroke-width:0.5;stroke-miterlimit:10;}
	.st2{fill:#F1D4E6;}
	.st3{fill:none;stroke:#0079A0;stroke-width:0.2;stroke-miterlimit:10;}
	.st4{fill:#FECA80;stroke:#F69680;stroke-width:0.1;stroke-linecap:round;stroke-linejoin:round;stroke-miterlimit:10;}
	.st5{font-family:'AmoreKiena';}
	.st6{font-size:4.1835px;}
	.st7{fill:none;stroke:#F69680;stroke-width:0.2;stroke-linecap:round;stroke-linejoin:round;stroke-miterlimit:10;}
</style>
<g>
	<path class="st0" d="M3.58,15.14c-0.12,0.07-0.2,0.01-0.18-0.13l0.74-4.89C4.17,9.99,4.1,9.81,4,9.71L0.41,6.33
		c-0.1-0.09-0.07-0.19,0.06-0.21l4.86-0.8c0.14-0.02,0.29-0.14,0.35-0.27l2.1-4.47c0.06-0.12,0.16-0.13,0.22,0l2.26,4.39
		c0.06,0.12,0.23,0.24,0.36,0.25l4.89,0.62c0.14,0.02,0.17,0.11,0.07,0.21l-3.47,3.51c-0.1,0.1-0.15,0.29-0.13,0.42l0.92,4.86
		c0.03,0.14-0.05,0.19-0.18,0.13l-4.4-2.22c-0.12-0.06-0.32-0.06-0.44,0.01L3.58,15.14z"/>
	<path class="st1" d="M3.58,15.14c-0.12,0.07-0.2,0.01-0.18-0.13l0.74-4.89C4.17,9.99,4.1,9.81,4,9.71L0.41,6.33
		c-0.1-0.09-0.07-0.19,0.06-0.21l4.86-0.8c0.14-0.02,0.29-0.14,0.35-0.27l2.1-4.47c0.06-0.12,0.16-0.13,0.22,0l2.26,4.39
		c0.06,0.12,0.23,0.24,0.36,0.25l4.89,0.62c0.14,0.02,0.17,0.11,0.07,0.21l-3.47,3.51c-0.1,0.1-0.15,0.29-0.13,0.42l0.92,4.86
		c0.03,0.14-0.05,0.19-0.18,0.13l-4.4-2.22c-0.12-0.06-0.32-0.06-0.44,0.01L3.58,15.14z"/>
</g>
<g>
	<path class="st2" d="M3.94,14.14c-0.03,0.02-0.06,0-0.05-0.04l0.76-4.46c0.01-0.04-0.01-0.09-0.04-0.12L1.38,6.38
		C1.35,6.35,1.36,6.33,1.4,6.32l4.46-0.66c0.04-0.01,0.08-0.04,0.1-0.07l1.99-4.06c0.02-0.03,0.04-0.03,0.06,0l2,4.05
		c0.02,0.03,0.06,0.07,0.1,0.07l4.46,0.64c0.04,0.01,0.05,0.03,0.02,0.06l-3.22,3.16c-0.03,0.03-0.04,0.08-0.04,0.12l0.77,4.45
		c0.01,0.04-0.02,0.05-0.05,0.04l-3.99-2.1c-0.03-0.02-0.09-0.02-0.12,0L3.94,14.14z"/>
	<path class="st3" d="M3.94,14.14c-0.03,0.02-0.06,0-0.05-0.04l0.76-4.46c0.01-0.04-0.01-0.09-0.04-0.12L1.38,6.38
		C1.35,6.35,1.36,6.33,1.4,6.32l4.46-0.66c0.04-0.01,0.08-0.04,0.1-0.07l1.99-4.06c0.02-0.03,0.04-0.03,0.06,0l2,4.05
		c0.02,0.03,0.06,0.07,0.1,0.07l4.46,0.64c0.04,0.01,0.05,0.03,0.02,0.06l-3.22,3.16c-0.03,0.03-0.04,0.08-0.04,0.12l0.77,4.45
		c0.01,0.04-0.02,0.05-0.05,0.04l-3.99-2.1c-0.03-0.02-0.09-0.02-0.12,0L3.94,14.14z"/>
</g>
<g>
	<text transform="matrix(1.0594 0 0 1 4.7429 8.9282)" class="st4 st5 st6">C</text>
</g>
<text transform="matrix(1.0594 0 0 1 7.7918 8.9282)" class="st4 st5 st6">G</text>
<path class="st7" d="M6.03,10.04c0.21,0.2,0.42,0.34,0.6,0.44c1.34,0.69,2.81-0.19,3.08-0.37"/>
</svg>
